<?xml version="1.0" encoding="UTF-8" standalone="no"?>
<!-- Created with Inkscape (http://www.inkscape.org/) -->

<svg
   xmlns:dc="http://purl.org/dc/elements/1.1/"
   xmlns:cc="http://creativecommons.org/ns#"
   xmlns:rdf="http://www.w3.org/1999/02/22-rdf-syntax-ns#"
   xmlns:svg="http://www.w3.org/2000/svg"
   xmlns="http://www.w3.org/2000/svg"
   xmlns:sodipodi="http://sodipodi.sourceforge.net/DTD/sodipodi-0.dtd"
   xmlns:inkscape="http://www.inkscape.org/namespaces/inkscape"
   width="210mm"
   height="297mm"
   viewBox="0 0 210 297"
   version="1.1"
   id="svg8"
   inkscape:version="0.92.4 (5da689c313, 2019-01-14)"
   sodipodi:docname="pin.svg">
  <defs
     id="defs2" />
  <sodipodi:namedview
     id="base"
     pagecolor="#ffffff"
     bordercolor="#666666"
     borderopacity="1.0"
     inkscape:pageopacity="0.0"
     inkscape:pageshadow="2"
     inkscape:zoom="0.7"
     inkscape:cx="720.46064"
     inkscape:cy="-52.828084"
     inkscape:document-units="mm"
     inkscape:current-layer="layer2"
     showgrid="false"
     inkscape:window-width="1366"
     inkscape:window-height="705"
     inkscape:window-x="-4"
     inkscape:window-y="-4"
     inkscape:window-maximized="1"
     inkscape:snap-grids="true" />
  <metadata
     id="metadata5">
    <rdf:RDF>
      <cc:Work
         rdf:about="">
        <dc:format>image/svg+xml</dc:format>
        <dc:type
           rdf:resource="http://purl.org/dc/dcmitype/StillImage" />
        <dc:title></dc:title>
      </cc:Work>
    </rdf:RDF>
  </metadata>
  <g
     inkscape:label="Ebene 1"
     inkscape:groupmode="layer"
     id="layer1"
     style="display:none" />
  <g
     inkscape:groupmode="layer"
     id="layer2"
     inkscape:label="nur Pin">
    <path
       style="fill:none;stroke:#000000;stroke-width:0.55006534px;stroke-linecap:butt;stroke-linejoin:miter;stroke-opacity:1"
       d="M 105.61473,1.3499562 C 1.8045313,0.72370364 -9.4153652,85.481272 7.5313724,119.24453 L 87.504437,279.14525"
       id="path3713"
       inkscape:connector-curvature="0"
       sodipodi:nodetypes="ccc" />
    <path
       sodipodi:nodetypes="ccc"
       inkscape:connector-curvature="0"
       id="path3715"
       d="M 105.61473,1.3499562 C 209.42492,0.72370364 220.64484,85.481272 203.69808,119.24453 l -79.97306,159.90072"
       style="fill:none;stroke:#000000;stroke-width:0.55006534px;stroke-linecap:butt;stroke-linejoin:miter;stroke-opacity:1" />
    <path
       style="fill:none;stroke:#000000;stroke-width:0.62935466px;stroke-linecap:butt;stroke-linejoin:miter;stroke-opacity:1"
       d="m 87.504436,279.14525 c 19.512924,38.3609 36.220584,0 36.220584,0"
       id="path3721"
       inkscape:connector-curvature="0"
       sodipodi:nodetypes="cc" />
    <ellipse
       id="path3727"
       cx="104.9348"
       cy="84.79438"
       rx="59.431267"
       ry="54.187515"
       style="fill:#000000;stroke-width:0.62935466" />
    <path
       style="fill:none;stroke-width:0.89907807"
       d="m 99.721283,293.41164 c -1.702035,-1.07721 -4.477287,-3.7646 -6.167231,-5.97197 C 89.558706,282.22096 6.6023486,116.36487 4.5650131,109.52232 2.1702015,101.47915 1.6546174,81.008099 3.6003571,71.22111 5.2878397,62.73313 10.072058,50.571778 14.517147,43.470906 31.350791,16.579772 63.174001,2.0177759 105.10717,2.0177759 c 53.82162,0 89.73183,22.5632611 101.13439,63.5452011 4.36809,15.699455 3.73473,37.136973 -1.45783,49.342233 -4.75616,11.17948 -84.10997,168.40516 -86.90923,172.19545 -3.84381,5.20463 -8.37861,8.26959 -12.23538,8.26959 -1.55278,0 -4.21579,-0.88137 -5.917837,-1.95861 z M 122.51205,136.90278 c 18.5488,-5.29851 33.67587,-18.97923 39.53865,-35.75822 2.94489,-8.428168 3.18963,-23.791683 0.49751,-31.229178 C 154.55075,47.821027 136.2714,33.593694 112.20731,30.733657 96.357624,28.849915 80.793182,32.882639 67.441035,42.33253 54.142861,51.744235 44.999455,69.0116 44.999455,84.713578 c 0,11.977208 6.087968,26.733442 14.79343,35.856932 8.342498,8.74306 22.23088,15.98395 34.690167,18.08616 7.176398,1.21087 20.588078,0.37163 28.028998,-1.75389 z"
       id="path3731"
       inkscape:connector-curvature="0" />
  </g>
</svg>
